<?xml version="1.0" encoding="UTF-8"?>
<!DOCTYPE svg PUBLIC "-//W3C//DTD SVG 1.1//EN" "http://www.w3.org/Graphics/SVG/1.1/DTD/svg11.dtd">
<svg xmlns="http://www.w3.org/2000/svg" version="1.1" width="500px" height="500px" style="shape-rendering:geometricPrecision; text-rendering:geometricPrecision; image-rendering:optimizeQuality; fill-rule:evenodd; clip-rule:evenodd" xmlns:xlink="http://www.w3.org/1999/xlink">
<g><path style="opacity:0.982" fill="#1d9bf0" d="M 245.5,240.5 C 243.77,241.026 242.436,242.026 241.5,243.5C 239.973,243.427 238.973,244.094 238.5,245.5C 218.324,253.378 197.657,259.712 176.5,264.5C 176.666,258.158 176.5,251.825 176,245.5C 148.697,226.59 140.364,201.257 151,169.5C 168.644,136.441 195.477,125.608 231.5,137C 262.529,154.238 273.362,180.071 264,214.5C 260.008,224.855 253.842,233.522 245.5,240.5 Z"/></g>
<g><path style="opacity:0.977" fill="#1e9bf0" d="M 341.5,252.5 C 338.5,254.833 335.833,257.5 333.5,260.5C 331.529,261.823 329.529,263.156 327.5,264.5C 326.504,270.463 326.171,276.463 326.5,282.5C 309.667,278.291 293,273.458 276.5,268C 266.867,263.703 259.034,257.203 253,248.5C 251.086,245.702 250.086,242.702 250,239.5C 267.99,221.546 273.823,200.212 267.5,175.5C 271.294,171.427 275.96,168.594 281.5,167C 312.344,159.841 334.844,170.341 349,198.5C 355.646,217.874 353.146,235.874 341.5,252.5 Z"/></g>
<g><path style="opacity:0.859" fill="#a3d6f8" d="M 189.5,173.5 C 188.504,186.656 188.171,199.99 188.5,213.5C 187.174,199.994 187.174,186.328 188.5,172.5C 189.107,172.624 189.44,172.957 189.5,173.5 Z"/></g>
<g><path style="opacity:0.998" fill="#fcfdfe" d="M 189.5,173.5 C 201.633,179.733 213.633,186.233 225.5,193C 213.434,200.365 201.101,207.198 188.5,213.5C 188.171,199.99 188.504,186.656 189.5,173.5 Z"/></g>
<g><path style="opacity:0.993" fill="#f7fbfe" d="M 273.5,212.5 C 282.745,211.899 285.411,215.732 281.5,224C 273.246,227.081 269.746,224.248 271,215.5C 272.045,214.627 272.878,213.627 273.5,212.5 Z"/></g>
<g><path style="opacity:0.992" fill="#f8fcfe" d="M 295.5,212.5 C 305.615,212.249 307.949,216.249 302.5,224.5C 294.697,226.532 291.53,223.532 293,215.5C 294.045,214.627 294.878,213.627 295.5,212.5 Z"/></g>
<g><path style="opacity:0.992" fill="#f8fcfe" d="M 317.5,212.5 C 327.615,212.249 329.949,216.249 324.5,224.5C 316.697,226.532 313.53,223.532 315,215.5C 316.045,214.627 316.878,213.627 317.5,212.5 Z"/></g>
<g><path style="opacity:0.004" fill="#1e9bef" d="M 245.5,240.5 C 246.833,241.167 246.833,241.167 245.5,240.5 Z"/></g>
<g><path style="opacity:0.004" fill="#1e9aef" d="M 241.5,243.5 C 242.833,244.167 242.833,244.167 241.5,243.5 Z"/></g>
<g><path style="opacity:0.004" fill="#1e9aef" d="M 238.5,245.5 C 239.833,246.167 239.833,246.167 238.5,245.5 Z"/></g>
<g><path style="opacity:0.004" fill="#1e9aef" d="M 341.5,252.5 C 342.833,253.167 342.833,253.167 341.5,252.5 Z"/></g>
<g><path style="opacity:0.004" fill="#1e9aef" d="M 333.5,260.5 C 334.833,261.167 334.833,261.167 333.5,260.5 Z"/></g>
</svg>
